<?xml version="1.0" encoding="UTF-8" standalone="no"?>
<svg
   inkscape:version="1.1.1 (c3084ef, 2021-09-22)"
   sodipodi:docname="logo.svg"
   id="svg876"
   version="1.1"
   viewBox="0 0 262.00229 278.07687"
   height="278.07687"
   width="262.00229"
   data-name="Layer 1"
   xmlns:inkscape="http://www.inkscape.org/namespaces/inkscape"
   xmlns:sodipodi="http://sodipodi.sourceforge.net/DTD/sodipodi-0.dtd"
   xmlns="http://www.w3.org/2000/svg"
   xmlns:svg="http://www.w3.org/2000/svg">
  <defs
     id="defs880" />
  <sodipodi:namedview
     id="namedview878"
     pagecolor="#505050"
     bordercolor="#eeeeee"
     borderopacity="1"
     inkscape:pageshadow="0"
     inkscape:pageopacity="0"
     inkscape:pagecheckerboard="0"
     showgrid="false"
     fit-margin-top="0"
     fit-margin-left="0"
     fit-margin-right="0"
     fit-margin-bottom="0"
     inkscape:zoom="1.2992211"
     inkscape:cx="91.978186"
     inkscape:cy="158.55654"
     inkscape:window-width="1512"
     inkscape:window-height="916"
     inkscape:window-x="0"
     inkscape:window-y="38"
     inkscape:window-maximized="0"
     inkscape:current-layer="svg876" />
  <path
     d="M 0.10292262,147.5662 11.905763,196.32226 242.78696,140.43071 230.98412,91.674648 a 3.6384,3.6384 0 0 0 -2.35767,-2.59508 3.59409,3.59409 0 0 0 -1.33406,-0.20075 L 93.833203,19.776898 a 3.682,3.682 0 0 0 -4.65628,1.11925 L 24.857053,110.5899 0.60911262,144.41271 a 0.51379,0.51379 0 0 0 -0.089,0.41825 3.64176,3.64176 0 0 0 -0.41719,2.73524 z"
     fill="#ffffff"
     id="path844" />
  <path
     d="m 0.52013262,144.83097 a 0.48973,0.48973 0 0 0 0.20314,0.31583 0.55943,0.55943 0 0 0 0.43330998,0.0855 0.53586,0.53586 0 0 0 0.29889,-0.20727 l 0.0833,-0.11537 1.26254,-1.76554 22.9288904,-31.96427 64.30082,-89.673202 a 2.6198,2.6198 0 0 1 3.32194,-0.79624 l 132.425367,68.56666 1.18838,0.6168 a 1.29216,1.29216 0 0 0 0.14733,0.0516 1.61549,1.61549 0 0 1 0.27147,-0.026 0.51364,0.51364 0 0 0 0.28983,-0.24474 0.524,0.524 0 0 0 -0.21883,-0.7087 l -0.16408,-0.0873 -133.459187,-69.10194 a 3.682,3.682 0 0 0 -4.65628,1.11925 L 24.857093,110.58979 0.60915262,144.4126 a 0.51379,0.51379 0 0 0 -0.089,0.41826 z"
     fill="#3f3d56"
     id="path846" />
  <path
     d="m 69.861073,149.80257 5.13934,0.57012 38.142517,4.22535 25.28583,2.79936 1.49358,0.166 31.55217,-24.64477 1.20883,-0.944 7.45235,-5.82019 26.5135,-20.70629 0.15919,-1.45441 9.43044,-85.114132 a 4.4539,4.4539 0 0 0 -3.92912,-4.91152 L 86.453833,0.02633758 a 4.456,4.456 0 0 0 -4.91157,3.92920002 l -6.65043,60.0375604 -3.689,33.28581 -3.3,29.778472 -1.52976,13.82919 -0.44637,4.00573 a 4.45691,4.45691 0 0 0 3.93437,4.91027 z"
     fill="#e6e6e6"
     id="path848" />
  <path
     d="m 104.44617,75.196468 54.51668,6.03806 19.33354,2.14069 a 6.5396842,6.5396842 0 1 0 1.43979,-12.99988 l -24.04683,-2.66322 -49.79941,-5.52188 a 6.54306,6.54306 0 0 0 -1.44377,13.00623 z"
     fill="#ffffff"
     id="path850" />
  <path
     d="m 101.34216,99.312478 c 0.14068,0.0251 0.28136,0.0503 0.42455,0.0641 l 63.28515,7.010902 10.5663,1.17291 a 6.5421604,6.5421604 0 0 0 1.43855,-13.005002 l -15.27834,-1.69033 -50.13045,-5.5548 -8.43621,-0.93485 a 6.53913,6.53913 0 0 0 -1.86955,12.937 z"
     fill="#ffffff"
     id="path852" />
  <path
     d="m 94.179703,120.6963 a 6.53866,6.53866 0 0 0 4.88047,3.12537 l 25.938697,2.87281 46.19708,5.118 0.0102,-0.002 1.47721,0.16462 7.45235,-5.82019 a 6.47057,6.47057 0 0 0 0.001,-1.33 6.5548,6.5548 0 0 0 -5.78686,-5.82386 l -6.41729,-0.713 -25.457,-2.81712 -18.31689,-2.0315 -23.66022,-2.62223 a 6.54,6.54 0 0 0 -6.318777,9.87953 z"
     fill="#ffffff"
     id="path854" />
  <path
     d="m 130.61263,45.718248 13.5644,1.50232 5.99124,0.66537 9.05013,1.00159 a 6.5421604,6.5421604 0 0 0 1.43855,-13.005 l -28.59932,-3.16545 a 6.5405926,6.5405926 0 1 0 -1.445,13.00113 z"
     fill="#ffffff"
     id="path856" />
  <path
     d="m 19.697533,81.930508 16.53736,68.313802 27.60123,5.24823 25.532,4.86089 27.393557,5.21238 8.753,1.6657 a 3.6733,3.6733 0 0 0 2.93957,-0.71161 l 7.02206,-5.48451 4.44605,-3.472 31.55217,-24.64477 -20.062,-82.873622 a 4.40272,4.40272 0 0 0 -1.24424,-2.15908 4.44864,4.44864 0 0 0 -4.12489,-1.11718 L 22.973833,76.561378 a 4.45037,4.45037 0 0 0 -3.2763,5.36913 z"
     fill="#00bfa6"
     id="path858" />
  <path
     d="m 57.617903,136.27659 a 6.54613,6.54613 0 0 0 7.89577,4.818 l 72.214397,-17.48162 a 6.54974,6.54974 0 0 0 4.818,-7.89578 2.09959,2.09959 0 0 0 -0.0705,-0.24672 6.53879,6.53879 0 0 0 -7.82527,-4.5713 l -72.214397,17.48161 a 6.54613,6.54613 0 0 0 -4.818,7.89581 z"
     fill="#ffffff"
     id="path860" />
  <path
     d="m 63.836123,155.49254 25.532,4.86089 54.084557,-13.09272 a 6.5405133,6.5405133 0 1 0 -3.07775,-12.7138 l -72.214387,17.48162 a 6.49388,6.49388 0 0 0 -3.74749,2.51147 6.5835,6.5835 0 0 0 -0.57693,0.95254 z"
     fill="#ffffff"
     id="path862" />
  <path
     d="m 116.76168,165.56581 8.753,1.6657 a 3.6733,3.6733 0 0 0 2.93957,-0.71161 l 7.02206,-5.48451 z"
     fill="#ffffff"
     id="path864" />
  <path
     d="m 72.168653,99.645348 a 6.54611,6.54611 0 0 0 7.89577,4.818002 l 27.970367,-6.771052 a 6.54973,6.54973 0 0 0 4.818,-7.89577 6.46594,6.46594 0 0 0 -1.20489,-2.48625 6.5454,6.5454 0 0 0 -6.69088,-2.33178 l -27.970367,6.77105 a 6.54142,6.54142 0 0 0 -4.818,7.89577 z"
     fill="#ffffff"
     id="path866" />
  <path
     d="m 89.366053,160.35305 27.397997,5.21358 8.75042,1.66643 a 3.68877,3.68877 0 0 0 2.938,-0.71124 l 7.02714,-5.48585 -2.46594,0.59695 -5.20559,4.061 a 2.63556,2.63556 0 0 1 -2.09887,0.5081 l -6.47926,-1.23238 -27.397997,-5.21357 z m 81.837667,-28.539 0.26672,1.10181 1.21521,-0.9448 z m -81.837667,28.539 27.397997,5.21358 8.75042,1.66643 a 3.68877,3.68877 0 0 0 2.938,-0.71124 l 7.02714,-5.48585 -2.46594,0.59695 -5.20559,4.061 a 2.63556,2.63556 0 0 1 -2.09887,0.5081 l -6.47926,-1.23238 -27.397997,-5.21357 z m 0,0 27.397997,5.21358 8.75042,1.66643 a 3.68877,3.68877 0 0 0 2.938,-0.71124 l 7.02714,-5.48585 -2.46594,0.59695 -5.20559,4.061 a 2.63556,2.63556 0 0 1 -2.09887,0.5081 l -6.47926,-1.23238 -27.397997,-5.21357 z M 0.10292262,147.5662 31.018923,275.27639 a 3.66655,3.66655 0 0 0 4.42206,2.69835 L 259.20177,223.80686 a 3.6663,3.6663 0 0 0 2.69835,-4.42206 l -30.916,-127.710182 a 3.6384,3.6384 0 0 0 -2.35767,-2.59508 3.59409,3.59409 0 0 0 -1.33406,-0.20075 3.45812,3.45812 0 0 0 -1.5141,0.3983 3.17906,3.17906 0 0 0 -0.60724,0.37708 l -18.36413,14.339762 -26.67024,20.83345 -8.93478,6.97911 0.002,0.008 -0.008,0.002 -32.7657,25.578 -5.41664,4.23905 -5.20559,4.061 a 2.63556,2.63556 0 0 1 -2.09887,0.5081 l -6.47926,-1.23238 -27.397997,-5.21357 -27.42201,-5.21626 -60.0611504,-11.42972 a 3.59025,3.59025 0 0 0 -1.54741,0.0334 3.66988,3.66988 0 0 0 -1.78823,1.03592 4.11057,4.11057 0 0 0 -0.49290998,0.65091 3.64176,3.64176 0 0 0 -0.41721,2.73524 z m 89.26313038,12.78685 27.397997,5.21358 8.75042,1.66643 a 3.68877,3.68877 0 0 0 2.938,-0.71124 l 7.02714,-5.48585 -2.46594,0.59695 -5.20559,4.061 a 2.63556,2.63556 0 0 1 -2.09887,0.5081 l -6.47926,-1.23238 -27.397997,-5.21357 z m 0,0 27.397997,5.21358 8.75042,1.66643 a 3.68877,3.68877 0 0 0 2.938,-0.71124 l 7.02714,-5.48585 -2.46594,0.59695 -5.20559,4.061 a 2.63556,2.63556 0 0 1 -2.09887,0.5081 l -6.47926,-1.23238 -27.397997,-5.21357 z m 0,0 27.397997,5.21358 8.75042,1.66643 a 3.68877,3.68877 0 0 0 2.938,-0.71124 l 7.02714,-5.48585 -2.46594,0.59695 -5.20559,4.061 a 2.63556,2.63556 0 0 1 -2.09887,0.5081 l -6.47926,-1.23238 -27.397997,-5.21357 z"
     fill="#ffffff"
     id="path868" />
  <path
     d="m 89.366053,160.35305 27.397997,5.21358 8.75042,1.66643 a 3.68877,3.68877 0 0 0 2.938,-0.71124 l 7.02714,-5.48585 -2.46594,0.59695 -5.20559,4.061 a 2.63556,2.63556 0 0 1 -2.09887,0.5081 l -6.47926,-1.23238 -27.397997,-5.21357 z m 81.837667,-28.539 0.26672,1.10181 1.21521,-0.9448 z m -81.837667,28.539 27.397997,5.21358 8.75042,1.66643 a 3.68877,3.68877 0 0 0 2.938,-0.71124 l 7.02714,-5.48585 -2.46594,0.59695 -5.20559,4.061 a 2.63556,2.63556 0 0 1 -2.09887,0.5081 l -6.47926,-1.23238 -27.397997,-5.21357 z m 0,0 27.397997,5.21358 8.75042,1.66643 a 3.68877,3.68877 0 0 0 2.938,-0.71124 l 7.02714,-5.48585 -2.46594,0.59695 -5.20559,4.061 a 2.63556,2.63556 0 0 1 -2.09887,0.5081 l -6.47926,-1.23238 -27.397997,-5.21357 z m -87.8273204,-15.44334 0.13589,0.102 c 0.0227,-0.0373 0.0623,-0.0706 0.0924,-0.10968 a 2.64256,2.64256 0 0 1 2.38507,-0.76779 l 59.6856704,11.354 25.5283,4.86479 27.397997,5.21358 8.75042,1.66643 a 3.68877,3.68877 0 0 0 2.938,-0.71124 l 7.02714,-5.48585 -2.46594,0.59695 -5.20559,4.061 a 2.63556,2.63556 0 0 1 -2.09887,0.5081 l -6.47926,-1.23238 -27.397997,-5.21357 -27.42213,-5.21562 -60.0611504,-11.42972 a 3.59025,3.59025 0 0 0 -1.54741,0.0334 z M 0.10292262,147.56623 31.018923,275.27642 a 3.66655,3.66655 0 0 0 4.42206,2.69835 L 259.20177,223.80689 a 3.6663,3.6663 0 0 0 2.69835,-4.42206 l -30.916,-127.710182 a 3.6384,3.6384 0 0 0 -2.35767,-2.59508 3.59409,3.59409 0 0 0 -1.33406,-0.20075 3.45812,3.45812 0 0 0 -1.5141,0.3983 3.17906,3.17906 0 0 0 -0.60724,0.37708 l -18.36413,14.339762 -26.67024,20.83345 -8.93478,6.97911 0.002,0.008 -0.008,0.002 -32.7657,25.578 -5.41664,4.23905 -5.20559,4.061 a 2.63556,2.63556 0 0 1 -2.09887,0.5081 l -6.47926,-1.23238 -27.397997,-5.21357 -27.42201,-5.21629 -60.0611504,-11.42972 a 3.59025,3.59025 0 0 0 -1.54741,0.0334 3.66988,3.66988 0 0 0 -1.78823,1.03592 4.11057,4.11057 0 0 0 -0.49290998,0.65091 3.64176,3.64176 0 0 0 -0.41721,2.73524 z m 1.01959998,-0.24682 a 2.59762,2.59762 0 0 1 0.46152,-2.19054 0.34094,0.34094 0 0 1 0.0906,-0.11714 c 0.0227,-0.0373 0.0623,-0.0706 0.0924,-0.10968 a 2.64256,2.64256 0 0 1 2.38507,-0.76779 l 59.6856704,11.354 25.5283,4.86479 27.397997,5.21358 8.75042,1.66643 a 3.68877,3.68877 0 0 0 2.938,-0.71124 l 7.02714,-5.48585 4.44395,-3.47195 31.54686,-24.64821 1.21521,-0.9448 7.44662,-5.81748 26.5182,-20.70938 19.17121,-14.971572 a 2.60368,2.60368 0 0 1 0.98714,-0.477 1.99722,1.99722 0 0 1 0.30518,-0.0501 1.61549,1.61549 0 0 1 0.27147,-0.026 2.67893,2.67893 0 0 1 0.90068,0.14691 2.625,2.625 0 0 1 1.68605,1.85318 l 30.916,127.710192 a 2.61952,2.61952 0 0 1 -1.93138,3.16522 L 35.196033,276.96287 a 2.61809,2.61809 0 0 1 -3.1575,-1.93331 z m 88.2435304,13.03367 27.397997,5.21358 8.75042,1.66643 a 3.68877,3.68877 0 0 0 2.938,-0.71124 l 7.02714,-5.48585 -2.46594,0.59695 -5.20559,4.061 a 2.63556,2.63556 0 0 1 -2.09887,0.5081 l -6.47926,-1.23238 -27.397997,-5.21357 z m 0,0 27.397997,5.21358 8.75042,1.66643 a 3.68877,3.68877 0 0 0 2.938,-0.71124 l 7.02714,-5.48585 -2.46594,0.59695 -5.20559,4.061 a 2.63556,2.63556 0 0 1 -2.09887,0.5081 l -6.47926,-1.23238 -27.397997,-5.21357 z m 0,0 27.397997,5.21358 8.75042,1.66643 a 3.68877,3.68877 0 0 0 2.938,-0.71124 l 7.02714,-5.48585 -2.46594,0.59695 -5.20559,4.061 a 2.63556,2.63556 0 0 1 -2.09887,0.5081 l -6.47926,-1.23238 -27.397997,-5.21357 z"
     fill="#3f3d56"
     id="path870" />
  <path
     d="m 200.88293,198.71613 a 8.12818,8.12818 0 0 1 5.98077,-9.80128 l 28.24156,-6.8367 a 8.119,8.119 0 0 1 3.82051,15.78205 l -28.24156,6.8367 a 8.12818,8.12818 0 0 1 -9.80128,-5.98077 z"
     fill="#00bfa6"
     id="path872" />
  <g
     aria-label="MJML"
     transform="rotate(-13.597009)"
     id="text2752"
     style="font-size:40px;line-height:1.25;fill:#00bfa6">
    <path
       d="m -12.645058,249.07309 q -1.48,0 -2.12,-0.64 -0.64,-0.68 -0.64,-2.52 0,-1.24 0.24,-3.16 0.28,-1.96 0.88,-5.36 1.04,-6.28 1.64,-10.88 0.36,-2.88 0.36,-4.8 0,-1.8 -1.32,-1.8 -1.04,0 -2.52,1.08 -1.44,1.04 -3.2,3.36 -0.56,0.76 -1.24,0.76 -0.56,0 -1,-0.52 -0.4,-0.56 -0.4,-1.24 0,-0.64 0.24,-1.28 0.28,-0.68 0.88,-1.52 1.92,-2.68 4.28,-4.12 2.36,-1.48 4.72,-1.48 2.1999996,0 3.3599996,1.4 1.2,1.4 1.2,4.08 0,1.08 -0.2,2.56 -0.2,1.44 -0.36,2.36 -0.16,0.92 -0.24,1.28 2.28,-6.52 5.12,-9.08 2.84000004,-2.6 6.24,-2.6 2.6,0 4.08,1.84 1.52,1.84 1.52,5.2 0,1.32 -0.36,3.28 2.0000004,-5.52 4.6800004,-7.92 2.68,-2.4 6.16,-2.4 2.8,0 4.28,1.8 1.52,1.8 1.52,5.04 0,1.76 -0.52,4.28 l -2.44,11.44 q -0.4,2 -0.4,3.44 0,1.68 0.76,2.52 0.8,0.84 2.2,0.84 1.32,0 2.56,-0.88 1.28,-0.88 3,-2.92 0.48,-0.56 1.08,-0.56 0.52,0 0.8,0.48 0.32,0.48 0.32,1.32 0,1.56 -0.76,2.48 -2.08,2.52 -4.12,3.68 -2.04,1.16 -4.28,1.16 -3.4,0 -5.32,-2 -1.92,-2.04 -1.92,-5.44 0,-2.36 0.96,-6.84 l 1.6,-7.32 q 0.08,-0.36 0.28,-1.28 0.2,-0.92 0.32,-1.72 0.12,-0.84 0.12,-1.64 0,-1.4 -0.56,-2.08 -0.52,-0.72 -1.52,-0.72 -1.88,0 -3.96,2.44 -2.04,2.4 -3.9200004,8 -1.84,5.6 -3,14.56 -0.28,2.4 -1,3.24 -0.68,0.8 -2.24,0.8 -1.36,0 -2,-0.64 -0.59999996,-0.64 -0.59999996,-2.4 0,-1.64 0.43999996,-4.28 0.44,-2.68 1.12,-6.28 1.84,-9.68 1.84,-12.48 0,-1.52 -0.6,-2.24 -0.56,-0.72 -1.72,-0.72 -1.95999996,0 -4.04,2.24 -2.08,2.2 -4.08,7.88 -1.96,5.64 -3.28,15.28 -0.2799996,2.04 -0.8399996,2.84 -0.52,0.8 -2.08,0.8 z"
       style="font-family:Pacifico;-inkscape-font-specification:Pacifico"
       id="path960" />
    <path
       d="m 58.011817,218.19309 q 0,1.2 -0.52,1.8 -0.48,0.6 -1.6,0.6 -0.08,0.84 -0.36,2.92 -0.4,2.8 -0.44,3.12 -3.56,26.52 -14.84,26.52 -3.32,0 -5.2,-1.88 -1.84,-1.88 -1.84,-4.72 0,-5.08 4.32,-8.96 4.32,-3.92 11.36,-6.48 0.44,-2.84 0.68,-5.08 l 0.72,-6.04 q -2.4,-0.24 -4.48,-0.24 -5.56,0 -8.2,1.08 -2.64,1.08 -2.64,3.52 0,1.2 0.8,2.6 0.24,0.4 0.24,0.84 0,0.84 -0.88,1.52 -0.84,0.64 -1.84,0.64 -1.28,0 -1.96,-1.08 -1.12,-1.84 -1.12,-4.28 0,-9.6 16.8,-9.6 4.88,0 8.72,0.96 2.28,0.56 2.28,2.24 z m -17.24,30.68 q 1.96,0 3.92,-2.96 1.96,-2.96 3.44,-10.36 -9.76,4.28 -9.76,10.48 0,1.36 0.64,2.12 0.64,0.72 1.76,0.72 z"
       style="font-family:Pacifico;-inkscape-font-specification:Pacifico"
       id="path962" />
    <path
       d="m 66.339317,249.07309 q -1.48,0 -2.12,-0.64 -0.64,-0.68 -0.64,-2.52 0,-1.24 0.24,-3.16 0.28,-1.96 0.88,-5.36 1.04,-6.28 1.64,-10.88 0.36,-2.88 0.36,-4.8 0,-1.8 -1.32,-1.8 -1.04,0 -2.52,1.08 -1.44,1.04 -3.2,3.36 -0.56,0.76 -1.24,0.76 -0.56,0 -1,-0.52 -0.4,-0.56 -0.4,-1.24 0,-0.64 0.24,-1.28 0.28,-0.68 0.88,-1.52 1.92,-2.68 4.28,-4.12 2.36,-1.48 4.72,-1.48 2.2,0 3.36,1.4 1.2,1.4 1.2,4.08 0,1.08 -0.2,2.56 -0.2,1.44 -0.36,2.36 -0.16,0.92 -0.24,1.28 2.28,-6.52 5.12,-9.08 2.84,-2.6 6.24,-2.6 2.6,0 4.08,1.84 1.52,1.84 1.52,5.2 0,1.32 -0.36,3.28 2,-5.52 4.68,-7.92 2.68,-2.4 6.16,-2.4 2.800003,0 4.280003,1.8 1.52,1.8 1.52,5.04 0,1.76 -0.52,4.28 l -2.44,11.44 q -0.4,2 -0.4,3.44 0,1.68 0.76,2.52 0.8,0.84 2.2,0.84 1.32,0 2.56,-0.88 1.28,-0.88 3,-2.92 0.48,-0.56 1.08,-0.56 0.52,0 0.8,0.48 0.32,0.48 0.32,1.32 0,1.56 -0.76,2.48 -2.08,2.52 -4.12,3.68 -2.04,1.16 -4.28,1.16 -3.400003,0 -5.320003,-2 -1.92,-2.04 -1.92,-5.44 0,-2.36 0.96,-6.84 l 1.6,-7.32 q 0.08,-0.36 0.28,-1.28 0.2,-0.92 0.32,-1.72 0.12,-0.84 0.12,-1.64 0,-1.4 -0.56,-2.08 -0.52,-0.72 -1.52,-0.72 -1.88,0 -3.96,2.44 -2.04,2.4 -3.92,8 -1.84,5.6 -3,14.56 -0.28,2.4 -1,3.24 -0.68,0.8 -2.24,0.8 -1.36,0 -2,-0.64 -0.6,-0.64 -0.6,-2.4 0,-1.64 0.44,-4.28 0.44,-2.68 1.12,-6.28 1.84,-9.68 1.84,-12.48 0,-1.52 -0.6,-2.24 -0.56,-0.72 -1.72,-0.72 -1.96,0 -4.04,2.24 -2.08,2.2 -4.08,7.88 -1.96,5.64 -3.28,15.28 -0.28,2.04 -0.84,2.84 -0.52,0.8 -2.08,0.8 z"
       style="font-family:Pacifico;-inkscape-font-specification:Pacifico"
       id="path964" />
    <path
       d="m 137.31619,239.95309 q 0.52,0 0.8,0.48 0.32,0.48 0.32,1.32 0,1.56 -0.76,2.48 -2.24,2.68 -4.36,3.76 -2.08,1.08 -5.04,1.08 -2.08,0 -3.84,-0.52 -1.76,-0.52 -4.28,-1.56 -2.28,-1 -4.4,-1.64 -2.04,3.72 -6.12,3.72 -2.24,0 -3.56,-1 -1.36,-1.04 -1.36,-2.64 0,-1.96 1.88,-3.24 1.88,-1.32 5,-1.32 h 0.52 l 0.72,-11.64 q 0.24,-4 1.44,-6.6 1.2,-2.6 3.32,-4.44 1.84,-1.6 4.2,-2.4 2.36,-0.84 5,-0.84 4.32,0 6.64,2.24 2.32,2.24 2.32,5.84 0,2.44 -0.88,3.96 -0.88,1.48 -2.44,1.48 -1.12,0 -1.76,-0.52 -0.64,-0.56 -0.64,-1.56 0,-0.36 0.16,-1.32 0.24,-1.12 0.24,-2 0,-1.68 -1,-2.64 -0.96,-1 -2.96,-1 -3.52,0 -5.44,2.32 -1.92,2.28 -2.44,7.2 l -0.92,9.08 q -0.2,1.92 -0.52,3.32 2.56,0.44 6.4,1.4 2.24,0.56 3.44,0.8 1.2,0.24 2.12,0.24 2.32,0 3.96,-0.76 1.68,-0.8 3.16,-2.52 0.48,-0.56 1.08,-0.56 z"
       style="font-family:Pacifico;-inkscape-font-specification:Pacifico"
       id="path966" />
  </g>
</svg>
